<svg width="26" height="26" viewBox="0 0 26 26" fill="none" xmlns="http://www.w3.org/2000/svg">
<path d="M8.76025 0.814819H18.1353C22.1732 0.814819 25.4478 4.0894 25.4478 8.12732V17.5023C25.4478 21.5402 22.1732 24.8148 18.1353 24.8148H8.76025C4.72233 24.8148 1.44775 21.5402 1.44775 17.5023V8.12732C1.44775 4.0894 4.72233 0.814819 8.76025 0.814819ZM18.1353 23.4711C21.427 23.4711 24.104 20.7941 24.104 17.5023V8.12732C24.104 4.83555 21.427 2.15857 18.1353 2.15857H8.76025C5.46849 2.15857 2.7915 4.83555 2.7915 8.12732V17.5023C2.7915 20.7941 5.46849 23.4711 8.76025 23.4711H18.1353Z" fill="url(#paint0_linear)"/>
<path d="M8.76025 0.814819H18.1353C22.1732 0.814819 25.4478 4.0894 25.4478 8.12732V17.5023C25.4478 21.5402 22.1732 24.8148 18.1353 24.8148H8.76025C4.72233 24.8148 1.44775 21.5402 1.44775 17.5023V8.12732C1.44775 4.0894 4.72233 0.814819 8.76025 0.814819ZM18.1353 23.4711C21.427 23.4711 24.104 20.7941 24.104 17.5023V8.12732C24.104 4.83555 21.427 2.15857 18.1353 2.15857H8.76025C5.46849 2.15857 2.7915 4.83555 2.7915 8.12732V17.5023C2.7915 20.7941 5.46849 23.4711 8.76025 23.4711H18.1353Z" stroke="black"/>
<path d="M8.76025 0.814819H18.1353C22.1732 0.814819 25.4478 4.0894 25.4478 8.12732V17.5023C25.4478 21.5402 22.1732 24.8148 18.1353 24.8148H8.76025C4.72233 24.8148 1.44775 21.5402 1.44775 17.5023V8.12732C1.44775 4.0894 4.72233 0.814819 8.76025 0.814819ZM18.1353 23.4711C21.427 23.4711 24.104 20.7941 24.104 17.5023V8.12732C24.104 4.83555 21.427 2.15857 18.1353 2.15857H8.76025C5.46849 2.15857 2.7915 4.83555 2.7915 8.12732V17.5023C2.7915 20.7941 5.46849 23.4711 8.76025 23.4711H18.1353Z" stroke="url(#paint1_linear)"/>
<path d="M13.4478 6.56482C9.99619 6.56482 7.19775 9.36326 7.19775 12.8148C7.19775 16.2664 9.99619 19.0648 13.4478 19.0648C16.8993 19.0648 19.6978 16.2664 19.6978 12.8148C19.6978 9.36326 16.8993 6.56482 13.4478 6.56482ZM13.4478 16.7211C11.2946 16.7211 9.5415 14.9679 9.5415 12.8148C9.5415 10.6601 11.2946 8.90857 13.4478 8.90857C15.6009 8.90857 17.354 10.6601 17.354 12.8148C17.354 14.9679 15.6009 16.7211 13.4478 16.7211Z" fill="url(#paint2_linear)"/>
<path d="M20.1666 6.92892C20.6265 6.92892 20.9994 6.55606 20.9994 6.09611C20.9994 5.63617 20.6265 5.26331 20.1666 5.26331C19.7066 5.26331 19.3337 5.63617 19.3337 6.09611C19.3337 6.55606 19.7066 6.92892 20.1666 6.92892Z" fill="url(#paint3_linear)"/>
<defs>
<linearGradient id="paint0_linear" x1="3.23627" y1="23.0265" x2="23.6592" y2="2.60318" gradientUnits="userSpaceOnUse">
<stop stop-color="#FFC107"/>
<stop offset="0.507" stop-color="#F44336"/>
<stop offset="0.99" stop-color="#9C27B0"/>
</linearGradient>
<linearGradient id="paint1_linear" x1="13.4478" y1="0.314819" x2="13.4478" y2="25.3148" gradientUnits="userSpaceOnUse">
<stop stop-color="white"/>
<stop offset="1" stop-color="white" stop-opacity="0"/>
</linearGradient>
<linearGradient id="paint2_linear" x1="9.02846" y1="17.2341" x2="17.8671" y2="8.39552" gradientUnits="userSpaceOnUse">
<stop stop-color="#FFC107"/>
<stop offset="0.507" stop-color="#F44336"/>
<stop offset="0.99" stop-color="#9C27B0"/>
</linearGradient>
<linearGradient id="paint3_linear" x1="19.5777" y1="6.6851" x2="20.7554" y2="5.50728" gradientUnits="userSpaceOnUse">
<stop stop-color="#FFC107"/>
<stop offset="0.507" stop-color="#F44336"/>
<stop offset="0.99" stop-color="#9C27B0"/>
</linearGradient>
</defs>
</svg>
